<svg xmlns="http://www.w3.org/2000/svg" viewBox="0 0 51.78 94.2"><g id="Layer_2" data-name="Layer 2"><g id="_ÎÓÈ_1" data-name="—ÎÓÈ_1"><path d="M.33,5.44a3,3,0,0,1,.77-.1,22.19,22.19,0,0,1,3.17.44,62.37,62.37,0,0,0,6.19,1c.73.12,1.47.22,2.21.27a2.23,2.23,0,0,1,1.82,1.11A37.54,37.54,0,0,1,17,12.72c.69,1.47,1.31,3,2,4.46.25.54.58,1,.89,1.58.95,0,1.83,0,2.71,0a42.65,42.65,0,0,1,7.65.51,8,8,0,0,0,1,.09,13.87,13.87,0,0,1,4.76.68,95.87,95.87,0,0,0,4.23-10,4.25,4.25,0,0,1-.59-.15c-.29-.11-.71-.18-.84-.4A3.06,3.06,0,0,0,36,8.08L35.53,8a4.2,4.2,0,0,1-.58-.9,1.72,1.72,0,0,0-1.7-1.19c-.41,0-.75-.1-.8-.7A.8.8,0,0,1,32.73,5c1.13-.26,2.26-.54,3.4-.75,1.37-.24,2.76-.41,4.14-.62l1.64-.26a2.55,2.55,0,0,0,2.37-1.86c0-.08.06-.17.1-.26.64-1.57,1.78-1.7,3-.25L46,3.75l5.75,8.9s0,.08-.05.12a.65.65,0,0,1-.14.12,8.21,8.21,0,0,0-1.22-.79,4.15,4.15,0,0,0-3-.21A1.75,1.75,0,0,1,46,11.82a2.83,2.83,0,0,0-2.5-.12l-1.1-1.1a6,6,0,0,0-.5.73,48,48,0,0,0-2.34,5.36c-.34,1-.74,1.91-1.17,2.84a1.24,1.24,0,0,0,.3,1.63,3.49,3.49,0,0,0,.54.37,3.88,3.88,0,0,1-.48,2c-.49,1.15-1,2.3-1.45,3.47A22.89,22.89,0,0,0,36,32.82c0,.37-.11.73-.16,1.1a10.5,10.5,0,0,0,0,3.75c.18.91.27,1.84.47,2.75.25,1.18.53,2.36.89,3.51a36.3,36.3,0,0,1,.94,4.93c.21,1.33.25,2.69.42,4a33.26,33.26,0,0,1-.1,7.66A15.16,15.16,0,0,1,38,62.71c-.29,1.12-.61,2.24-.9,3.36a13,13,0,0,1-3.19,6,18.38,18.38,0,0,1-3.52,3,23,23,0,0,0-1.89,1.44v2.23a9.48,9.48,0,0,0,.78.82,1.61,1.61,0,0,1,.59,1.33,3.91,3.91,0,0,1-1.36,3.08c-.26.26-.58.47-.94.76a3.77,3.77,0,0,0,2.07,3.49,11.55,11.55,0,0,0,4.16,1.09,10,10,0,0,1,3.09.83A3.7,3.7,0,0,1,38.79,92c.23.53.13.93-.41,1.15a5.6,5.6,0,0,1-1.73.49c-3,.27-5.94.42-8.92.4-1.72,0-3.44.16-5.16.18-1.34,0-2.69-.1-4-.14s-2.42-.06-3.63-.12a11.83,11.83,0,0,1-1.66-.23c-.92-.18-.92-.19-1.7-1.2a2.94,2.94,0,0,1,1.7-2,11.85,11.85,0,0,1,4-1.57A14.55,14.55,0,0,0,20,88a3.37,3.37,0,0,0,1-.75,1.74,1.74,0,0,0,.54-1.9c-.05-.17-.07-.36-.12-.62-1.05-.43-1.36-1.52-1.92-2.41a1.16,1.16,0,0,1-.08-1.07,6.86,6.86,0,0,1,.74-1.65,3.4,3.4,0,0,0,.61-3.44c-1-.49-2-1-3-1.52a13.48,13.48,0,0,1-6.39-6.76,19.57,19.57,0,0,1-2-6.78,37.86,37.86,0,0,1-.16-8.9c.19-1.34.36-2.67.59-4,.11-.64.36-1.25.49-1.89.23-1.13.43-2.28.64-3.42a4.63,4.63,0,0,1,.06-.55,14.6,14.6,0,0,0,.54-3.72,30.87,30.87,0,0,0,0-3.47,20.14,20.14,0,0,0-1.3-6.83c-.52-1.49-1.08-3-1.52-4.49a9.73,9.73,0,0,1-.32-2.47,2.48,2.48,0,0,1,1.14-1.91c-.17-.34-.31-.68-.5-1-.93-1.55-1.88-3.1-2.81-4.65a4.92,4.92,0,0,1-.5-1,1.52,1.52,0,0,1,.64-1.7A1.29,1.29,0,0,1,7,11c1,.07,1.6.65,2,1.88l-1.12.27a2,2,0,0,0,0,.7A13,13,0,0,0,11,18.66a1.28,1.28,0,0,0,1.52.27,3.79,3.79,0,0,1,2.59-.25,3,3,0,0,0,1.68-.23,3.57,3.57,0,0,0-.2-.84c-1.19-2.26-2.39-4.52-3.57-6.78a2.66,2.66,0,0,0-2.29-1.57C9.39,9.13,8,8.79,6.64,8.61S3.78,8.3,2.35,8.15A8.41,8.41,0,0,1,1.11,8a1.3,1.3,0,0,1-1-1.78C.12,6,.22,5.76.33,5.44Zm8.9,16.74a6.66,6.66,0,0,0,.36,2.14c.52,1.49,1.1,3,1.6,4.46a21.16,21.16,0,0,1,1,5,46.3,46.3,0,0,1-1,11.51,9.88,9.88,0,0,1-.3,1.22,31.61,31.61,0,0,0-1.17,7c-.15,1.89,0,3.81,0,5.72a5.34,5.34,0,0,0,.05.69,31.57,31.57,0,0,0,2,7.38,3.42,3.42,0,0,0,.45.87c.31.38.86.64,1,1.06a4.27,4.27,0,0,0,.58,1.39,7.62,7.62,0,0,0,2.74,2.52,19.16,19.16,0,0,1,1.68,1,5.33,5.33,0,0,0,1.12.56,16.09,16.09,0,0,0,3.78.86,33.34,33.34,0,0,0,3.61-.1,5.51,5.51,0,0,0,2.77-.82A16,16,0,0,0,35,69.53a10,10,0,0,0,1.35-3.33c.17-.91.52-1.78.75-2.68a20.27,20.27,0,0,0,.66-2.85,44,44,0,0,0,.36-4.86,43.87,43.87,0,0,0-.33-4.58c-.15-1.43-.35-2.86-.6-4.28s-.57-2.82-.93-4.21a33.72,33.72,0,0,1-1.14-6.3,27.93,27.93,0,0,1,.73-6.64,24.29,24.29,0,0,1,1.67-5.16c.28-.64.55-1.28.81-1.93.1-.25,0-.45-.31-.51a4.59,4.59,0,0,1-.83.87,18.55,18.55,0,0,1-3,1.53,21.5,21.5,0,0,1-6.85,1.15c-1.58.05-3.16.06-4.75.05a14.52,14.52,0,0,1-2.07-.21c-2.29-.4-4.57-.83-6.86-1.24a7.93,7.93,0,0,1-3-1.15C10.27,22.92,9.86,22.62,9.23,22.18Zm29,70.32c-.43-1-.43-1-.91-1.36a5.83,5.83,0,0,0-2.56-1c-.68-.12-1.38-.19-2.07-.29A11.94,11.94,0,0,1,29.61,89a4.19,4.19,0,0,1-2.4-2.56c-.17-.47-.36-.94-.55-1.44-.8.1-1.53.24-2.26.27s-1.44-.08-2.19-.13a3.27,3.27,0,0,0,0,.5,2.12,2.12,0,0,1-.78,2.24,6.05,6.05,0,0,1-2.38,1.4c-1.07.29-2.16.53-3.24.81a7.61,7.61,0,0,0-3,1.67.64.64,0,0,0,.24,1.17,8.59,8.59,0,0,0,1.23.23,49.45,49.45,0,0,0,5.84.31c1.9.07,3.8,0,5.71-.06.83,0,1.66-.13,2.5-.15,1.48,0,3,0,4.46,0s3-.23,4.44-.37A5.39,5.39,0,0,0,38.23,92.5ZM21.9,24.5l1.5.16c.83.06,1.67.06,2.5.16a21.41,21.41,0,0,0,7.84-.88,1,1,0,0,0,.39-.15,2,2,0,0,0,.58-.57,11.38,11.38,0,0,0,.87-2.43,4,4,0,0,0-2.22-.57c-1.3-.08-2.61-.11-3.89-.29a51.82,51.82,0,0,0-6.82-.42,5.08,5.08,0,0,0-2.34.31l.73,2c.41,0,.73.06,1,.06.75,0,1.49,0,2.23-.08a3.53,3.53,0,0,1,2.39.53,2.36,2.36,0,0,1,2.42,0,.42.42,0,0,0,.26.06c.88-.29,1.75.11,2.63.05a9.18,9.18,0,0,1,1.8.15c.21,0,.45.13.34.55A5.2,5.2,0,0,1,33,23.2a11,11,0,0,0-4.28-.05,2.5,2.5,0,0,1-.82,0l-4.28-.62a3.65,3.65,0,0,0-2.08.33C21.63,23.39,21.75,23.87,21.9,24.5Zm-1,59.07a11.94,11.94,0,0,0,2.74.92,10.82,10.82,0,0,0,3.83-.6.63.63,0,0,0,.24-.13,3.4,3.4,0,0,0,1.42-2.46,2.33,2.33,0,0,0-1.27-2.25c-2.16.16-4.27.8-6.43,0a12.25,12.25,0,0,0-.71,1.06c-.83,1.46-.83,1.58-.06,3.08Zm-11-63.35a1.3,1.3,0,0,0,.39,1.67,5.87,5.87,0,0,0,2.17,1.21,31,31,0,0,0,5.32,1,1.32,1.32,0,0,0,.28,0,.88.88,0,0,0,.81-1.07,1.59,1.59,0,0,0-.27-.64,17.33,17.33,0,0,0-1.83-2.09,3.89,3.89,0,0,0-2.7-1c-.79,0-1.48.2-1.7,1.11a.85.85,0,0,1-.13.25,1,1,0,0,1-1.43.33A11.71,11.71,0,0,1,9.91,20.22Zm9.62,3.9a1.67,1.67,0,0,0,1.65.09c-.56-1.42-1.06-2.81-1.66-4.16-.71-1.61-1.49-3.2-2.26-4.79Q16,12.62,14.68,10a3.37,3.37,0,0,0-.55-.6,1,1,0,0,0-.21,1.32,39.86,39.86,0,0,1,2.46,4.83c.64,1.49,1.38,2.93,2.08,4.4,0,.08.11.19.08.25-.28.72.32,1.09.57,1.61a6.44,6.44,0,0,1,.41,1.46A3.9,3.9,0,0,1,19.53,24.12Zm8,52.17c-1,0-1.95.06-2.87.11a22.37,22.37,0,0,0-2.95,0c0,.34-.05.61,0,.87s.08.64.11.89a2.07,2.07,0,0,0,1.75.5c1.41-.1,2.86.1,4.22-.44A3.65,3.65,0,0,0,27.58,76.29ZM39.31,8.39a16,16,0,0,0,1.25-1.23c.81-1,1.57-1.93,2.34-2.91,0,0,0-.07,0-.11a19.91,19.91,0,0,0-5.58,2.32c-.32.17-.71.26-.81.69ZM.91,6.3a.58.58,0,0,0,.29.87,2.13,2.13,0,0,0,.67.17c1.19.11,2.39.2,3.59.32a25.28,25.28,0,0,1,4.4.66A17.76,17.76,0,0,0,12,8.71c.55.07.63,0,.83-.78,0,0-.07-.09-.1-.1-1.37-.16-2.75-.3-4.12-.48C7.55,7.2,6.46,7,5.36,6.8S3,6.38,1.8,6.21A3.68,3.68,0,0,0,.91,6.3Zm45-1.09a17.66,17.66,0,0,0,1.27,5.88,11.84,11.84,0,0,1,1.21-.1c.45,0,.9,0,1.5.08-1-1.8-2.31-3.25-3.28-4.91A10.29,10.29,0,0,0,45.93,5.21ZM43.12,9.89c.3-1.68.61-3.34.9-5A.18.18,0,0,0,44,4.76s-.07,0-.15,0a9.78,9.78,0,0,0-1.87,2A9.15,9.15,0,0,0,40.14,8.9C41.8,8.72,41.8,8.72,43.12,9.89ZM46,11c.06-.22.13-.32.11-.39-.33-1.5-.66-3-1-4.48a2.59,2.59,0,0,0-.34-.6A16.06,16.06,0,0,0,44,10.58ZM39.88,13.8l-.18-.07c-.09.16-.19.31-.27.48-.55,1.27-1.09,2.55-1.64,3.83S36.56,20.85,36,22.25c-.06.16-.22.33,0,.5.08,0,.21-.07.24-.13q1.69-3.89,3.38-7.79A8.83,8.83,0,0,0,39.88,13.8ZM34.73,5.47c.32.43.58.84,1.15,1C36.79,5.74,38,5.51,39,4.62c-.92.15-1.59.27-2.27.37S35.35,4.91,34.73,5.47Zm9.92-2.34c1.22-.23,1.41-1.08,1.6-2L45.39.94C45.15,1.67,44.55,2.21,44.65,3.13Zm-37.09,9a.51.51,0,0,0-.74-.29.88.88,0,0,0-.42.62,3.33,3.33,0,0,0,.23.95C7,12.93,7.27,12.55,7.56,12.14ZM41.61,9.87c-.73.79-.73.79-.65,1.58Zm-30,10.3a3,3,0,0,0-.35-.36s-.19,0-.22.07a.4.4,0,0,0,.31.49C11.43,20.36,11.49,20.27,11.62,20.17Z"/><path d="M48.85,13.62l-.26.28c-.07-.09-.19-.19-.19-.27s.13-.18.2-.27Z"/><path d="M22.16,41.89a5.71,5.71,0,0,1,.05,1c-.11,1-.29,1.93-.39,2.9-.14,1.38-.25,2.77-.32,4.16,0,1.06.05,2.14,0,3.2A16.63,16.63,0,0,0,22.07,58c.27,1.13.5,2.27.72,3.41.29,1.42-.23,1.94-1.64,1.48A3.46,3.46,0,0,1,18.88,61a13.47,13.47,0,0,1-1.24-3.67,22.12,22.12,0,0,1-.07-8,29.77,29.77,0,0,1,.9-3.06c.15-.49.38-.95.51-1.44a8.16,8.16,0,0,1,1.29-2.46,1.06,1.06,0,0,1,1.3-.5A4.16,4.16,0,0,0,22.16,41.89Zm-.94.62c-.33.35-.56.57-.75.82A3.1,3.1,0,0,0,20,44c-.47,1.27-1,2.52-1.36,3.81a20.93,20.93,0,0,0,0,10.37A9.44,9.44,0,0,0,19.8,60.9a2.75,2.75,0,0,0,2.42,1.3c-.28-1.36-.45-2.65-.83-3.88a23.18,23.18,0,0,1-.67-7.46,42.43,42.43,0,0,1,.65-6.65A2.59,2.59,0,0,0,21.22,42.51Z"/><path d="M28.12,32.9c.61.14,1.07.66,1.73.32a10,10,0,0,0,1.95.62,13.65,13.65,0,0,1,1.83,1.1c-.32.53-.94.12-1.17.61l-1.33-1a2.88,2.88,0,0,0-1.76-.73C28.76,33.84,28.43,33.37,28.12,32.9Z"/><path d="M27.09,64.63a6.87,6.87,0,0,1,.64.45,46,46,0,0,1,3.49,3.35c.33.38.78.66,1.15,1a.87.87,0,0,1,.18.61c-2.11-1.3-3.61-3.24-5.37-4.89C27.11,65.09,27.13,64.92,27.09,64.63Z"/><path d="M34.1,68.13a1.29,1.29,0,0,1-1.14-.5c-.22-.16-.45-.44-.67-.44a2.4,2.4,0,0,1-1.65-.9c-.69-.62-1.35-1.27-2-1.92-.15-.15-.26-.34-.5-.65.32.07.47.06.55.13.4.31.79.64,1.17,1a8.94,8.94,0,0,0,2.57,1.84A3.9,3.9,0,0,1,34.1,68.13Z"/><path d="M36,56.72c-.26-.25-.52-.51-.79-.75s-.6-.57-1.1-.35a.71.71,0,0,1-.5-.14c-1-.69-2-1.4-3.25-2.23a2.56,2.56,0,0,1,.77,0c.46.22.9.49,1.33.75s.78.67,1.38.45a.46.46,0,0,1,.37.12c.63.54,1.25,1.09,1.85,1.65.08.07.08.23.11.36Z"/><path d="M35.14,64.32c-.28-.14-.56-.27-.83-.43s-.6-.59-1.1-.32c-.1.06-.37-.06-.5-.18-.83-.8-1.65-1.61-2.47-2.43,0,0,0-.15,0-.36.4.32.75.58,1.09.86a7.38,7.38,0,0,0,2.54,1.63A1.64,1.64,0,0,1,35.14,64.32Z"/><path d="M21.59,67.23c.25.19.41.31.56.44.56.48,1.12,1,1.69,1.44a2.37,2.37,0,0,1,.91,1.1,5,5,0,0,0,1.09,1.35c-.11.12-.16.22-.23.23a.3.3,0,0,1-.25-.06c-1-1.58-2.61-2.62-3.71-4.11C21.61,67.57,21.63,67.46,21.59,67.23Z"/><path d="M30.22,45.12a1.47,1.47,0,0,1,.53,0c.46.23.89.51,1.34.75A6.33,6.33,0,0,0,34.33,47c.32,0,.6.36.93.58-.16.11-.25.21-.29.19-.54-.3-1.2-.19-1.71-.47-1-.55-2-1.2-3-1.83C30.25,45.41,30.26,45.28,30.22,45.12Z"/><path d="M27.41,69.76l-1.06.4a20.84,20.84,0,0,0-1.2-1.84c-.42-.53-.95-1-1.62-1.66.4.06.59,0,.69.12.43.35.81.75,1.24,1.1s1.09.84,1.61,1.28A2.32,2.32,0,0,1,27.41,69.76Z"/><path d="M34.18,44.73a27.3,27.3,0,0,0-2.88-2.61A4.29,4.29,0,0,1,30,40.87c.25-.21.36,0,.49.11.79.56,1.57,1.15,2.36,1.71a4.47,4.47,0,0,1,1.33,1.57C34.28,44.37,34.2,44.57,34.18,44.73Z"/><path d="M32.65,32.79a8.08,8.08,0,0,1-.57-.6,6.14,6.14,0,0,0-1.78-1.7,3.17,3.17,0,0,1-.58-.58c.17-.05.28-.12.32-.1,1,.59,2,1.2,2.9,1.77.06.39.1.7.16,1.08l-.49.1Z"/><path d="M32.61,32.76c.08.21.15.43.26.74-.26,0-.51.07-.66,0-.6-.35-1.17-.76-1.75-1.12-.19-.12-.48-.32-.62-.25-.87.38-1.25-.2-1.66-.76l0,0c.52-.05,1,.53,1.56.08.07-.06.34.08.49.16.4.22.79.45,1.18.7a2.08,2.08,0,0,0,1.26.47Z"/><path d="M32.71,64.82a2.15,2.15,0,0,1,0,.5c0,.05-.24.09-.35.07a.76.76,0,0,1-.36-.2c-.87-.76-1.75-1.53-2.6-2.31a2.8,2.8,0,0,1-.4-.54c.14-.06.25-.14.28-.12,1.14.87,2.27,1.75,3.39,2.62Z"/><path d="M34,62.12a14.79,14.79,0,0,1-3.8-3.31,22.52,22.52,0,0,1,3.84,2.85C34.1,61.71,34.05,61.82,34,62.12Z"/><path d="M30.56,57.25a15.83,15.83,0,0,1,4,2.6c-.36,0-.57.06-.69,0A12.19,12.19,0,0,1,30.56,57.25Z"/><path d="M15.61,69.7a1.18,1.18,0,0,0-.67-1,5.5,5.5,0,0,1-.75-.67.78.78,0,0,1,.92.26L16.73,70a2.16,2.16,0,0,0,1.23.84c.24,0,.43.41.76.75-.63.05-.72-.45-1-.56a3.3,3.3,0,0,1-.87-.35,9.71,9.71,0,0,1-.78-.79,2.06,2.06,0,0,0-.46-.27Z"/><path d="M30.32,36.83l.78.5a11.16,11.16,0,0,0,1.68,1.19c.69.31.73.81.87,1.43a1.17,1.17,0,0,1-.37-.11,6.32,6.32,0,0,1-.64-.52c-.8-.75-1.59-1.51-2.38-2.27C30.24,37,30.27,37,30.32,36.83Z"/><path d="M30,35a5.57,5.57,0,0,1,3.73,3.27,4.42,4.42,0,0,1-1.31-1.05c-.4-.37-.75-.81-1.15-1.18S30.41,35.38,30,35Z"/><path d="M14,64.52a8,8,0,0,1,3.62,2.92,3.15,3.15,0,0,1-.52-.35c-.45-.43-.79-1-1.54-1Z"/><path d="M33.66,41.39c-.1.08-.15.14-.16.13-.32-.17-.65-.32-1-.52a16,16,0,0,1-2.67-2.25,2.57,2.57,0,0,1,1.4.69l1.21.91C32.9,40.67,33.44,40.86,33.66,41.39Z"/><path d="M19,67.33a13.87,13.87,0,0,1,3.22,2.76c-.15.07-.26.16-.31.13A12.87,12.87,0,0,1,19,67.33Z"/><path d="M30.22,47.23A6.07,6.07,0,0,1,33.37,49c.07.06.05.25.05.38s-.06.06-.09.1-.2,0-.26,0C32.11,48.69,31.17,48,30.22,47.23Z"/><path d="M30.92,43.7a1.44,1.44,0,0,1,.52,0c.81.45,1.61.91,2.4,1.39.08,0,.13.32.08.35s-.35.23-.45.17c-.52-.29-1-.64-1.52-1l-1.12-.77Z"/><path d="M31.11,51.51a8.26,8.26,0,0,1,3.12,2.08c-.23,0-.43.1-.52,0-.87-.61-1.73-1.24-2.58-1.88C31.09,51.72,31.11,51.59,31.11,51.51Z"/><path d="M30.3,49.94a5.21,5.21,0,0,1,2.87,1.18c.27.16.26.18.5.71-.08,0-.19.11-.23.09C32.47,51.32,31.51,50.71,30.3,49.94Z"/><path d="M30.37,55.2a10.38,10.38,0,0,1,3.32,2.22c-.12,0-.26.16-.33.13A11.61,11.61,0,0,1,30.37,55.2Z"/><path d="M20.68,71.5a6.41,6.41,0,0,1,2.24,2.65s-.09,0-.11,0a1.11,1.11,0,0,1-.36-.19c-.62-.75-1.22-1.51-1.82-2.28C20.6,71.68,20.66,71.58,20.68,71.5Z"/><path d="M26.38,66.55A6.67,6.67,0,0,1,29,68.87c-.15,0-.3.07-.38,0A6.36,6.36,0,0,1,26.38,66.55Z"/><path d="M31.33,72.13,28.7,69.76a2.06,2.06,0,0,1,1.49.65c.46.38,1,.69,1.23,1.3C31.45,71.81,31.37,72,31.33,72.13Z"/><path d="M20.32,70.53c-1,0-1.41-.32-2.6-2.26a7.84,7.84,0,0,1,1.35,1.11C19.47,69.73,19.85,70.1,20.32,70.53Z"/><path d="M32.71,64.82v0c.12-.11.3-.35.33-.33a6.56,6.56,0,0,1,2.32,2c-.31,0-.51.06-.61,0s-.44-.49-.69-.68C33.63,65.44,33.16,65.14,32.71,64.82Z"/><path d="M34.51,52.68a3.81,3.81,0,0,1,1.59,1.25,1.28,1.28,0,0,1,.11,1l-.57-.64c-.22-.24-.45-.47-.68-.71l-.64-.67Z"/><path d="M33,30.14a6,6,0,0,1-1-.28,6.15,6.15,0,0,1-2-1.43c.12,0,.23-.11.28-.08C31.16,28.88,32.25,28.94,33,30.14Z"/><path d="M29.53,73.24c-.59-.57-1.19-1.13-1.77-1.71-.05,0,0-.16,0-.24A2.39,2.39,0,0,1,29.53,73.24Z"/><path d="M34.34,61.33c.43-.41.67-.07.89.1a1.85,1.85,0,0,1,1,1.73c-.35-.39-.58-.69-.85-.95S34.73,61.67,34.34,61.33Z"/><path d="M23.28,72.07a5.34,5.34,0,0,1,1.92,1.58C24.23,73.43,23.94,73.2,23.28,72.07Z"/><path d="M25.66,72.31a3.64,3.64,0,0,1,1.82,1.12C26.57,73.39,26.57,73.39,25.66,72.31Z"/><path d="M15,66.71a.3.3,0,0,1,.13,0c.86.23,1.32.86,1.81,1.77-.66-.14-.73-.63-1-.87s-.59-.56-.89-.84Z"/><path d="M15.73,26.49,17.3,28s0,.07-.1.2A5.57,5.57,0,0,1,15.73,26.49Z"/><path d="M34.41,57.68A2.67,2.67,0,0,1,36,59c-.33-.06-.52,0-.63-.12-.4-.31-.77-.65-1.15-1A2.13,2.13,0,0,1,34.41,57.68Z"/><path d="M33.87,49.78c.91-.17,1.3.42,1.62,1.12l-.85-.57Z"/><path d="M15,66.71l0,0c-.17,0-.39.08-.5,0a6.31,6.31,0,0,1-1.32-1.47,1.73,1.73,0,0,1,1,.68C14.51,66.21,14.76,66.46,15,66.71Z"/><path d="M23.5,27.55l1.37,1.12c-.28.27-.46.11-.63,0l-.95-.81Z"/><path d="M33.23,28.89c-.81-.14-.81-.14-1.33-.85A2.15,2.15,0,0,1,33.23,28.89Z"/><path d="M15.57,69.66c.16.39.33.78.58,1.36-.85-.41-1-1.07-1.49-1.83l.95.51Z"/><path d="M27.94,29.49c.41.31.81.63,1.21,1C28.48,30.51,28.22,30,27.94,29.49Z"/><path d="M28.14,28.44a1.82,1.82,0,0,1,1.46.72C28.85,29.23,28.57,28.67,28.14,28.44Z"/><path d="M14.41,63.16l1.11,1C14.82,64.11,14.82,64.11,14.41,63.16Z"/><path d="M15.31,27.83l-.92-1A1.25,1.25,0,0,1,15.31,27.83Z"/><path d="M25.9,27.66c-.81.17-1.09-.31-1.59-.56.18-.1.23-.14.26-.13C25,27.16,25.35,27.37,25.9,27.66Z"/><path d="M23.43,29.12A2.48,2.48,0,0,1,22,28,2.33,2.33,0,0,1,23.43,29.12Z"/><path d="M28.18,31.36,27,30.87a1.28,1.28,0,0,1,1.18.51Z"/><path d="M33.45,27.5c.24.12.48.22.71.36a.23.23,0,0,1,0,.23c0,.05-.18.11-.23.08-.23-.13-.44-.3-.67-.45C33.35,27.65,33.4,27.57,33.45,27.5Z"/><path d="M14.26,28c-.53,0-.78-.19-.85-.84Z"/><path d="M18.39,66.33a4.18,4.18,0,0,1-.61-.3,1,1,0,0,1-.16-.3c.23-.19.35,0,.47.09S18.21,66,18.39,66.33Z"/><path d="M19.49,27.23c.29.22.49.39.8.62C19.72,27.7,19.72,27.7,19.49,27.23Z"/><path d="M34.21,26.78c.35-.19.58-.08.74.28C34.59,27.28,34.36,27.13,34.21,26.78Z"/><path d="M26.6,90.27l.32-.31.13,0a.21.21,0,0,1,.12.07,32.81,32.81,0,0,1,3.28,2.69c-.39-.06-.57,0-.67-.11-.63-.45-1.25-.92-1.94-1.43V92a1.94,1.94,0,0,1-1.38-.78A21.1,21.1,0,0,0,25,89.41C25.75,89.61,26,90.1,26.6,90.27Z"/><path d="M32.92,92.28a3.7,3.7,0,0,1-2-1.47C32,91.14,32.06,91.17,32.92,92.28Z"/><path d="M33,91c1.29.32,1.29.32,1.64,1.15C34.05,92,34.05,92,33,91Z"/><path d="M30.46,91.64a3.35,3.35,0,0,1-1.78-1.32C29.84,90.82,29.84,90.82,30.46,91.64Z"/><path d="M19.16,91.34a1.39,1.39,0,0,1,1.12,1.1L19,91.6Z"/><path d="M24.66,92.49a1.74,1.74,0,0,1-1.48-1c.14-.27.27-.31.43-.13Z"/><path d="M27.38,89.19H26.06c0-.39.19-.5.44-.47a6.92,6.92,0,0,1,.89.25A1.62,1.62,0,0,1,27.38,89.19Z"/><path d="M27,88a2.93,2.93,0,0,1-.56,0c-.26-.06-.51-.15-.81-.24.16-.41.46-.28.69-.28A.6.6,0,0,1,27,88Z"/><path d="M25.19,91.57c.62-.17.88.2,1.32.67A1.88,1.88,0,0,1,25.19,91.57Z"/><path d="M35.86,92c-.24-.13-.48-.26-.71-.4-.06,0-.07-.15-.1-.23s.19-.1.25-.07c.26.15.5.32.75.49Z"/><path d="M26.32,86.46c-.38.15-.51.25-.62.23s-.41-.12-.43-.22c0-.26.22-.23.39-.21A3.91,3.91,0,0,1,26.32,86.46Z"/><path d="M17.47,91.39l.67.64c-.25.26-.38,0-.5,0a2.29,2.29,0,0,1-.36-.4Z"/><path d="M22.47,92.46a1.11,1.11,0,0,1-.85-.8C22.08,91.68,22.08,91.68,22.47,92.46Z"/><path d="M26.93,82.08a1.17,1.17,0,0,1-1.29-.78C26.28,81.45,26.7,81.62,26.93,82.08Z"/><path d="M25.07,82.1l1,.89c-.78.17-1-.26-1.19-.66Z"/><path d="M26.84,80.58a1.37,1.37,0,0,1,1.13.79C27.4,81.33,27.2,81,26.84,80.58Z"/></g></g></svg>