<svg xmlns="http://www.w3.org/2000/svg" viewBox="0 0 79.38 87.21"><g id="Layer_2" data-name="Layer 2"><g id="_ÎÓÈ_1" data-name="—ÎÓÈ_1"><path d="M35.46,40.59a5.78,5.78,0,0,1,.57-.93c1.51-1.65,3-3.28,4.56-4.91a3.35,3.35,0,0,0,1.47-2.69,25.33,25.33,0,0,1,1.85-5c.25-.6.5-1.2.75-1.77-.22-.33-.44-.13-.63-.07a4.8,4.8,0,0,0-2,1.29,14,14,0,0,0-2.62,3.59c-.09.19-.1.19-.67.48-.05-1.25.85-2.15,1.09-3.29a2.22,2.22,0,0,0-1.35.87c-.37.42-.71.87-1.07,1.29-.16.18-.23.17-.79,0,.2-.51.39-1,.65-1.69a4,4,0,0,0-1.26,1c-.34.38-.64.79-.93,1.16-.38,0-.46-.2-.41-.46s.09-.43.16-.79c-.84.57-1.07,1.42-1.55,2.14-.41-.83-.41-.83.68-3-.29-.18-.41.11-.52.24-.41.5-.79,1-1.18,1.55-.16.22-.31.44-.44.64-.39-.07-.45-.26-.34-.51.2-.46.42-.92.65-1.44-1,.33-1.36.74-2.84,2.87-.35-.06-.27-.33-.23-.53a4,4,0,0,1,.27-.64c.08-.2.14-.41.28-.8a4.14,4.14,0,0,0-1.34,1.22c-.36.42-.63.92-.95,1.38s-.41,1-1,1.46c-.3-.76.13-1.26.29-1.8a12.43,12.43,0,0,0,.64-1.68A4.46,4.46,0,0,0,26,31c-.32.46-.6.94-.94,1.39s-.43,1-1.16,1.23c0-1,.62-1.7.66-2.74A7.25,7.25,0,0,0,22,34c-.43,0-.46-.22-.4-.44.12-.39.28-.76.52-1.4a4.78,4.78,0,0,0-1.52,1.68,5,5,0,0,1-1.2,1.37c-.55-.67.38-1.15,0-1.78-1.41,1.44-2.12,3.38-3.56,4.76-.34-.09-.31-.34-.21-.55.39-.79.8-1.57,1.22-2.39a2.07,2.07,0,0,0-1.29.88c-.41.44-.86.84-1.31,1.24-.08.07-.24,0-.48.07a1.71,1.71,0,0,1,.11-.55c.24-.35.51-.67.77-1a8.85,8.85,0,0,0,.88-1.08,12.6,12.6,0,0,1,2.79-3.08A39.14,39.14,0,0,1,22,28.93a7,7,0,0,1,1.08-.65c2.28-1.05,4.56-2.11,6.86-3.12A23.61,23.61,0,0,1,38,23.1a25.62,25.62,0,0,1,3.89.27,24.19,24.19,0,0,0,3.22.21c-.17-.1-.33-.22-.5-.3s-.48-.09-.65-.23a5.76,5.76,0,0,0-2.88-.94c-.64-.11-1.3-.14-2-.19a2.27,2.27,0,0,0-.69,0l-3.94.89c-.36.08-.71.25-1.11,0,0-.12,0-.25.08-.37s.1-.21.16-.34a3.2,3.2,0,0,0-1.8.32c-.32.11-.66.23-.91-.07a.7.7,0,0,1,.08-1c.05-.05.06-.14.1-.22A4.54,4.54,0,0,0,28.8,22c-.38.25-.76.52-1.16.76a.41.41,0,0,1-.36-.1.38.38,0,0,1,0-.37c.25-.37.55-.72.94-1.22a5.79,5.79,0,0,0-1.77.76c-.54.23-1.06.53-1.66.84-.29-.88.6-1,.85-1.59a2.7,2.7,0,0,0-.64.12A10.61,10.61,0,0,0,22.2,22.8a1.32,1.32,0,0,1-1.37.44c0-.75.84-.72,1.13-1.33a2.25,2.25,0,0,0-.75.17c-.9.57-1.79,1.18-2.68,1.77-.37.24-.44.21-.86-.4a22.42,22.42,0,0,0-2.73,1.77V24a9.81,9.81,0,0,0-1.13.78c-.38.33-.68.09-1.07-.09l-.77.73c-.17.16-.34.41-.53.43-.72.08-1,.62-1.32,1.13S9.39,28.19,9,28.77a.29.29,0,0,1-.54,0,22.2,22.2,0,0,1,.79-2.21,16.07,16.07,0,0,1,1.25-2.17c.44-.66,1-1.26,1.45-1.88a2.28,2.28,0,0,1,.49-.49,24.93,24.93,0,0,1,3.17-2c.21-.09.5-.19.58-.36a2.1,2.1,0,0,1,1.41-1c.09,0,.23-.05.25-.11.44-1.09,1.33-.72,2.13-.69,0,0,.08,0,.13-.07,0-.21-.09-.42-.16-.7.65-.52,1.33,0,2,0,.05-.19.1-.4.16-.66.71-.39,1.42.13,2.17.11l.53-.64,1.93.41v-.77c1.2-.16,2,.7,3.06,1.25-.07-.46-.12-.8-.2-1.27a2.53,2.53,0,0,1,.72.1c.37.19.72.43,1.1.67.17-.11.41-.18.46-.31a1.74,1.74,0,0,1,1.43-1.16,2.25,2.25,0,0,0,.51-.22c-.06-.42-.4-.39-.62-.42a5.07,5.07,0,0,0-2.88.26,13,13,0,0,1-1.86.58c-.24.06-.46,0-.47-.43.85-.67,2-.73,3-1.39a6.36,6.36,0,0,0-3.43.55c-.59.27-1.16.59-1.75.86-.14.06-.34,0-.51,0,0-.16,0-.38.13-.47a6.27,6.27,0,0,1,1.92-1.34c.12,0,.2-.16.32-.27-1.72-.34-2.55-.12-4.32,1.17l-.46-.37a12,12,0,0,1,.91-.87,14.29,14.29,0,0,1,1.24-.81,4.49,4.49,0,0,0-.91.08c-1,.42-1.95.87-2.92,1.32-.28.13-.52.23-.72-.22.46-.59,1.24-.87,1.84-1.53a6.92,6.92,0,0,0-2.2-.33c-.63-.12-1.26.68-1.92.07a1.15,1.15,0,0,1,1.05-.7A28.82,28.82,0,0,1,25,9.18C25.68,9.17,26.32,9,27,9c2.19-.24,4.23.47,6.29,1,.27.07.52.21.79.29a11.36,11.36,0,0,1,4.22,2.39c.6.51,1.2,1,1.82,1.53.24.19.25.18.89-.12l-1.69-1.34.73-.54c0-.07,0-.18-.09-.22-.52-.38-1.06-.74-1.59-1.12-.19-.14-.45-.26-.52-.45-.28-.82-1-1.06-1.68-1.34A1.15,1.15,0,0,1,35.89,9c-.83-.47-1.41-1.34-2.43-1.47-.24-.7-.83-.78-1.45-.86-.37,0-.46-.29-.32-.73a3.22,3.22,0,0,1,.23-.46c-.6,0-1.14,0-1.68-.05s-.67-.38-.38-.89a3.21,3.21,0,0,1,.4-.48A5.07,5.07,0,0,0,28,4.73c-.8-.29-.25-.77-.22-1.26-1,.13-1.39,1.06-2.15,1.47-.71-.74.17-1.43,0-2.21a.85.85,0,0,0-.79.34A10.62,10.62,0,0,1,24,4a.76.76,0,0,1-.62.14c-.25-.08-.25-.35-.19-.59s.2-.63.26-.94a1.93,1.93,0,0,0-.08-.52c-1.07.11-1.49,1.16-2.32,1.46-.39-.22-.39-.55-.19-.73A13,13,0,0,1,23.5.59,7.19,7.19,0,0,1,26.76,0,19.34,19.34,0,0,1,36.92,3.05a11.33,11.33,0,0,1,3.28,3,28,28,0,0,1,3.36,5.78c.87,2.1,1.76,4.2,2.67,6.37.46-.48.39-1.1.57-1.62a4.23,4.23,0,0,1,.7-1.69l.87.12,1.53-3.43.75.08c.39-.52.8-1.06,1.27-1.7l.83.71c.08,0,.2-.05.24-.12.42-.61.81-1.24,1.23-1.86.18-.26.39-.51.61-.78l1,.37,1.73-1.59a4.77,4.77,0,0,0,1.33.25,3.16,3.16,0,0,0,1.28-.51,1.89,1.89,0,0,1,1.48-.21,3,3,0,0,1,.91.32A5.62,5.62,0,0,0,65,7.36c.08.39-.15.47-.37.53-.44.13-.9.23-1.34.36s-.91.19-1,.8c-.07.34-.45.42-.79.47-.5.07-1,.16-1.52.25-.25.39-.27.92-.79,1.07l-1.39.42c-.22.79-.89,1.31-1.28,2s-1.22,1-1.42,1.94c.2-.15.42-.29.6-.45.62-.55,1.13-1.29,2.14-1,.14,0,.33-.14.49-.22l1.28-.69.54.71c1.11-.52,2.41-.53,3.51-1.17a.59.59,0,0,1,.53,0,1.54,1.54,0,0,0,1.59,0,2.6,2.6,0,0,1,1.21,0c1.07.1,1.94.89,3,.78a.84.84,0,0,1,.39.12,12.38,12.38,0,0,1,2.43,2.42.59.59,0,0,1-.09.49.84.84,0,0,1-.88.28l-1.69-.28c.07.3.12.54.19.86-1,.19-1.68-.58-2.58-.49-.11.2-.18.5-.37.63s-.44.06-.67,0-.62-.15-1-.24c-.11.17-.2.32-.3.46l-.31.39-2.28-.65-.38.7c-.82.26-1.57-.55-2.56-.08L61.4,19l-.29.79a5,5,0,0,0,1.7.1c.54,0,1.09-.1,1.64-.16,0,.54,0,.54-.46,1.09,1,.76,2.29.28,3.46.57a1.4,1.4,0,0,1-.91.6c0,.08,0,.2.09.23,1.06.59,2.13,1.15,3.18,1.75a4.14,4.14,0,0,1,.67.67L69.19,25c0,.09,0,.21,0,.26A29.76,29.76,0,0,1,72.55,29a5.32,5.32,0,0,0,.81.76,3.86,3.86,0,0,1,.49.5c.13.19.23.45,0,.62a.59.59,0,0,1-.5.06,8.31,8.31,0,0,1-1.11-.57c-.57-.31-1.12-.64-1.63-.93-.42.12-.26.38-.28.59a3.75,3.75,0,0,1-.26.7l-1.29-1.48c-.37.24,0,.51-.06.73a6.91,6.91,0,0,0-.11.78A2.28,2.28,0,0,1,68,30.4c-.25-.27-.42-.61-.65-.9s-.28-.35-.42-.34c-1,0-1.21-.75-1.64-1.32-.16-.22-.3-.45-.52-.8-.11.46-.19.79-.27,1.15-.82-.1-.9-1-1.49-1.25l-.68.35-1-.95-1,.74a1,1,0,0,0,.91.58c.45.08.93-.11,1.4.26L62,29c.79.68,1.62.26,2.41.17.38.5-.24.77-.19,1.25l2.37,1.2-.52.81c.06.08.11.18.18.21a4.8,4.8,0,0,1,.9.34c.2.14.29.43.47.73l-1.47.83a3.78,3.78,0,0,0,1.6,1.24,3,3,0,0,1,1.55,1.27c-.13.59-.68.22-.92.5,0,.08-.05.21,0,.24.54.51,1.1,1,1.65,1.5.24.22.49.43.71.67a1.71,1.71,0,0,1,.18.45l-.82.13c0,.09-.08.19-.06.25.31.73.64,1.45.93,2.18a3.7,3.7,0,0,1,.08.93l-1.61-.77c.12.85.22,1.57.31,2.3,0,.41.08.83.11,1.25a1.71,1.71,0,0,1-.78,1.61c-.71-1-.73-2.33-1.48-3.29a1.8,1.8,0,0,1-.24.2c-.45.32-.84.25-1-.2a5,5,0,0,1-.14-1A2.62,2.62,0,0,0,66,42.68h-.87c-.19-.55-.38-1.11-.56-1.66l-.72-.27a17,17,0,0,1-.5-3.11l-.91.86c-.15-.13-.31-.21-.33-.31-.08-.5-.12-1-.16-1.52,0-.32-.06-.63-.09-1.06l-1,.49c-.59-.57-.3-1.3-.56-2l-.84.07c-.65-.56-.61-1.47-1.1-2.09-.41,0-.5.21-.4.51.18.51.42,1,.65,1.51a1.52,1.52,0,0,1-.85-.09c0,.08-.07.18,0,.23.28.54.59,1.06.88,1.59a2.21,2.21,0,0,1,.34,1.47l-.67.21c.48,1.13,1,2.24,1.41,3.35.23.56.2.57-.24,1.27.23.83.48,1.68.69,2.53.06.21.09.54,0,.65-.39.37-.27.75-.15,1.16s.27.89.37,1.34a5.38,5.38,0,0,1,0,.81,2.74,2.74,0,0,1-.66-.31,7.38,7.38,0,0,1-.62-.7c-.11.95.38,1.6.42,2.29-.23.3-.43.22-.63.06l-.58-.47c-.56,1.2-.13,2.68-1.45,3.52a1.83,1.83,0,0,1-.32-.53c-.14-.68-.22-1.38-.34-2.06-.08-.51-.2-1-.32-1.58l-.85.32a2.35,2.35,0,0,1-.2-.6c0-.6,0-1.2,0-1.82l-.74.11c-.73-.81,0-1.69-.1-2.53-.28-.12-.65-.16-.8-.37a1.36,1.36,0,0,1-.17-.92c.05-.55.21-1.09.31-1.64,0-.27.07-.54.11-.87l-.91.34a3,3,0,0,1-.29-.75,11.28,11.28,0,0,1,.09-1.34l-.71-.06c-.31-.52-.08-1.06,0-1.6a4.19,4.19,0,0,0,0-1.73c-.22.18-.34.3-.48.4l-.47.29C50,35.5,50.16,34.75,50,34c-.7-.26-.89-.85-.82-1.62s0-1.39,0-2.16l-.82-.11a2.44,2.44,0,0,0-1.68-1.88c.18.69.34,1.31.51,2l-.76.34.64,1.92-.59.46c.06.45.12.89.2,1.46l-1-.36c0,.09-.09.17-.08.26a1.89,1.89,0,0,0,.08.4c.13.59.13.59-.34,1.26a21,21,0,0,1,.75,2.58l-.84-.07c0,.08-.08.17-.06.23a13.14,13.14,0,0,1,.9,2.23l-.86.3c.24.92.49,1.83.74,2.78-.39.54-.7-.22-1.07-.1,0,.08-.09.17-.07.24l.77,2-1.08,0c.14.91.94,1.51,1,2.47-.76.1-1-.69-1.61-.75-.26.2-.07.42,0,.58.27.43.6.83.88,1.26.17.25.31.53.52.89a3.3,3.3,0,0,1-1.94-.47c-.21.32.09.5.22.7.36.59.78,1.15,1.17,1.74a4,4,0,0,1,.21.66l-1.64-.61c.12,1,.85,1.56,1.06,2.5l-1.33-.27a3,3,0,0,0,.6,1.25c.25.47.15.79-.35,1.07.34,1,.68,2,1,3-.46.3-.78-.31-1.28-.07.19.54.4,1.09.55,1.66a.38.38,0,0,1-.65.37,9.8,9.8,0,0,1-.74-1c-.42.19-.15,1-.78.82-.45-.11-.37-.6-.42-1a22,22,0,0,1-.34-4.3c0-.87-.15-1.76-.13-2.64,0-2.28-.17-4.55-.11-6.83,0-1.24-.16-2.49-.26-3.87a3.14,3.14,0,0,0-.74.38,25.45,25.45,0,0,0-4,4.78A112.2,112.2,0,0,0,29.8,59.49,22.23,22.23,0,0,0,28.65,62c-.65,1.94-1.21,3.91-1.8,5.86a2.26,2.26,0,0,0,0,.49,5,5,0,0,0,.77.15c1,0,2.05,0,3.07,0,1.73,0,3.45.15,5.17.19a57.51,57.51,0,0,1,6.81.54,9.58,9.58,0,0,0,2.51,0,16.56,16.56,0,0,1,4.87.06,40.47,40.47,0,0,0,6.13.28,10,10,0,0,1,2.87.4,8,8,0,0,0,2.49.09c.88,0,1.76-.14,2.64-.18a4.53,4.53,0,0,1,2.17.34,3.65,3.65,0,0,0,1.92.14,35.09,35.09,0,0,1,7,0,10.36,10.36,0,0,0,1.25-.07,10.59,10.59,0,0,1,2.87.05c.08.36-.17.37-.32.38a41.68,41.68,0,0,1-7.24.06,16.6,16.6,0,0,0-2.23,0c-.84,0-1.67.11-2.51.14a1.58,1.58,0,0,1-.82-.09c-1.18-.71-2.44-.44-3.68-.39-.75,0-1.49.16-2.23.15a6.24,6.24,0,0,1-1.78-.27,5.7,5.7,0,0,0-1.78-.27c-1.58,0-3.15-.13-4.73,0A7.62,7.62,0,0,1,50,69.83a12.75,12.75,0,0,0-4.31-.13,30.85,30.85,0,0,1-5-.2l-5.43-.34c-.23,0-.46,0-.69,0l-7,0a7.63,7.63,0,0,0-1,.17,18.63,18.63,0,0,0-.88,6.3,5.63,5.63,0,0,0,.76.19,28.57,28.57,0,0,1,5.81,1.45,16.47,16.47,0,0,0,6.4,1.2,7.49,7.49,0,0,1,3.22.84,2.23,2.23,0,0,1,.55.42,13.2,13.2,0,0,1,1,.94,2.54,2.54,0,0,0,2,.77,23.76,23.76,0,0,1,5.36.84c1.53.39,3.08.73,4.63,1a6,6,0,0,0,2.76-.14,10.22,10.22,0,0,1,5.89.45c.06,0,.08.15.17.32a2.28,2.28,0,0,1-.5,0c-1.07-.1-2.13-.25-3.2-.33a8.53,8.53,0,0,0-2.35.2A10.06,10.06,0,0,1,54,83.73c-1.36-.3-2.71-.64-4-1A22.59,22.59,0,0,0,45.16,82a3.42,3.42,0,0,1-2.55-1.21,5,5,0,0,0-3.7-1.67,25.86,25.86,0,0,1-2.64-.22,1.27,1.27,0,0,0-1.14.26,22.9,22.9,0,0,0-9.82-2.72,5.12,5.12,0,0,0-.85,3.23,10.48,10.48,0,0,1-.15,2.36c-.06.51-.27.64-.88.6s-1.29-.14-1.94-.16c-1.16,0-2.32,0-3.49,0h-.7a1,1,0,0,1-1-.68,4.41,4.41,0,0,1-.34-1.2,12.08,12.08,0,0,1,.08-3.06,42.88,42.88,0,0,1,1.69-6.6c.17-.47.26-1,.39-1.48a1.81,1.81,0,0,0-1.37-.34c-1.77,0-3.54-.07-5.3,0-2,.06-3.91,0-5.86,0-.51,0-1,.1-1.52.13a3.33,3.33,0,0,1-.63-.13c.21-.18.3-.31.39-.31.83-.07,1.67-.16,2.5-.17,1.35,0,2.7,0,4,0,.28,0,.56,0,.84,0l6.69.06a1.66,1.66,0,0,0,.36-.09,7.72,7.72,0,0,0,.38-.81,30.49,30.49,0,0,1,2.69-6c1-1.73,2.06-3.42,3-5.16s2.1-3.62,3.25-5.38c.73-1.12,1.19-2.41,2-3.51s1.64-2.49,2.48-3.71a12.24,12.24,0,0,1,3.38-3.46c0,.19,0,.38,0,.57a1.69,1.69,0,0,0-1,1c.78.33,1.54.64,2.3,1a1.48,1.48,0,0,1,1,.76c0,.13,0,.3,0,.63a7.42,7.42,0,0,0-3.74-2,5.1,5.1,0,0,0-.68.57,46.87,46.87,0,0,0-2.77,4.34,4.64,4.64,0,0,0-.23.53c.65.16,1.24.28,1.82.44a6.73,6.73,0,0,1,1.15.46c.23.12.31.34,0,.53a9.5,9.5,0,0,0-1.83-.64c-.56-.09-1.21-.64-1.8.06.45.52,1.08.33,1.57.53s1,.29,1.37,1l-1.46-.45c-.45-.14-.89-.29-1.34-.39s-.65,0-.85.8l1.05.26c.67.19,1.34.36,2,.57.13,0,.2.23.3.34-1.3-.09-2.45-.61-3.74-.6a6.75,6.75,0,0,0-1.47,2.44l.9-.1a2.41,2.41,0,0,1,1.71.44c.15.1.31.24.05.5-.35-.11-.73-.26-1.13-.36A1.92,1.92,0,0,0,26,54.94c-.27.43-.52.88-.76,1.33-.11.23-.34.46-.11.82.59.12,1.23.21,1.85.38s1.36.21,1.81,1c-.47.14-.79-.26-1.23-.06a4.49,4.49,0,0,0,.19.59c.09.17.41.25.15.57a17,17,0,0,0-4-.82,20.63,20.63,0,0,0-1.34,1.7c-.37.58-.62,1.23-.94,1.84a50.28,50.28,0,0,0-4.08,11.39c-.17.68-.32,1.36-.46,2a4.8,4.8,0,0,0,0,.85c.88,0,1.66.06,2.45.12,1.06.08,2.12.18,3.19.29a.65.65,0,0,1,.64.6,1.7,1.7,0,0,1-.48-.06,2.69,2.69,0,0,0-2-.11,2.6,2.6,0,0,1-.56,0l.05,0a6.38,6.38,0,0,0-3.48,0,6.7,6.7,0,0,0,.2,4.24,7.6,7.6,0,0,0,1.87.14,13.13,13.13,0,0,1,2.08,0c.85.07,1.7.21,2.66.33a9.73,9.73,0,0,0,.08-1.68,6.09,6.09,0,0,1,.73-3.88,3.54,3.54,0,0,0,.38-2.15A1.13,1.13,0,0,0,25,73.18a6.87,6.87,0,0,0-2.46-.64c.17.77.24.7.65.84a2.72,2.72,0,0,1,1.73,1.05l-3.09-.74a.56.56,0,0,1-.26-.11c-.56-.67-1.28-.57-2-.45,0,0-.08-.13-.15-.25a5.31,5.31,0,0,1,2.09-.51c0-.17,0-.3.05-.46,1.18.07,2.33.47,3.58.45.22-1.15.42-2.24.62-3.32l0,0c.06-.07.16-.13.18-.21.55-1.86,1.27-3.67,1.65-5.59A6.33,6.33,0,0,1,28,62.1c.87-1.9,1.75-3.8,2.64-5.68.54-1.14,1.09-2.26,1.68-3.37.8-1.52,1.63-3,2.5-4.6a10.52,10.52,0,0,0-1-.65c-.37-.18-.79-.27-1.18-.42s-.8,0-1.36-.5c1.66-.29,2.71.48,3.86,1.19l.7-1a7.73,7.73,0,0,0-.61-.48,3.6,3.6,0,0,0-.61-.33,5.65,5.65,0,0,0-.8-.24c-.22-.06-.46-.07-.68-.13s-.49.06-.5-.29c1-.28,2,0,3.64,1,.42-.48.88-.94,1.27-1.45s1.07-.9,1.23-1.58a2.17,2.17,0,0,0-1.32-1.25c-.51-.22-1-.39-1.54-.64-.18-.09-.26-.35-.38-.53a14.62,14.62,0,0,1,4,1.75,2.62,2.62,0,0,0,.4-.24c1.24-1,1.22-2.17,0-3.08-.34-.24-.72-.43-1.06-.66a4,4,0,0,1-.49-.45c1-.06,1.65.61,2.44.9.14-.9-.69-1.13-.93-1.8l1.19.16c.1-.84.21-1.65.34-2.71a18,18,0,0,0-2.11,1.94c-.54.7-1.46,1.13-1.71,2.1a14.35,14.35,0,0,1,1.46.67,8.86,8.86,0,0,1,1.19.93c.09.08.07.29.13.54-.87-.54-1.6-1-2.36-1.44a1.88,1.88,0,0,0-.92-.23c-.17,0-.34.25-.5.38.12.13.22.35.36.37a5.77,5.77,0,0,1,2.55,1.37c.14.12.24.29,0,.5-.2-.13-.42-.28-.66-.41l-2-1.08A1.32,1.32,0,0,0,35.46,40.59ZM31.88,3.09a5.2,5.2,0,0,0-2.37-.78c-.24.36-.67.59-.65,1.22l1.55-.25,1.5-.22c.1.27.16.53-.1.76a2.29,2.29,0,0,0-.81,1c.65,0,1.15-.12,1.65-.11.19,0,.37.16.61.28a4.92,4.92,0,0,0-.33.55,5.89,5.89,0,0,0-.2.6c.66,0,1.21,0,1.76,0a2.87,2.87,0,0,1,.65.19,3.37,3.37,0,0,1-.25.44c-.09.12-.21.24-.37.43l2.82,1c0,.4,0,.8.42,1s.93.41,1.39.62l.66.3-.42.75c.54.66,1.71.61,1.92,1.63l-.57.59a6.41,6.41,0,0,0,1.9,1.28,3.62,3.62,0,0,0-.14-.74A18.14,18.14,0,0,0,41.2,11a16.39,16.39,0,0,0-3-3.63,2.26,2.26,0,0,1-.47-.51,6.73,6.73,0,0,0-2.59-2.26A10.58,10.58,0,0,1,34.05,4,5.11,5.11,0,0,0,31.88,3.09ZM47,22.89a4.2,4.2,0,0,0-1.44,1.95c-.55,1.28-1,2.59-1.68,3.83a23.48,23.48,0,0,0-2,6.94,39,39,0,0,0-.57,5.82,6.88,6.88,0,0,1-.18,1.09A10.64,10.64,0,0,0,41,46a11.12,11.12,0,0,1,.06,1.53c0,1-.1,2,0,3.07.18,2.26.25,4.53.24,6.81a11.6,11.6,0,0,0,.13,1.66.44.44,0,0,0,.61.39,4.39,4.39,0,0,1,.47-.66,1.1,1.1,0,0,0,.16-1.4l-.48-1,.57-.72c-.28-.56-.58-1.14-.84-1.73a1.06,1.06,0,0,1,0-.43c.46-.23.67.37,1.14.18-.26-.52-.48-1-.72-1.43s-.44-.71-.62-1.08-.07-.46.33-.51c.26.34.52.72.82,1.06s.37.44.76.21c-.1-.2-.18-.41-.29-.59-.42-.67-.87-1.33-1.28-2-.19-.3-.53-.58-.25-1,.14-.22.38-.1.88.39.27.26.54.52.82.76.12.1.26.31.49.07-.24-.43-.52-.85-.74-1.3-.39-.79-.76-1.59-1.12-2.4,0-.12.06-.31.12-.61.68.63.9,1.54,1.81,1.79-.09-.78-1-1.23-.69-2,.51-.15.77.64,1.38.2-.24-.46-.46-.91-.69-1.36s-.62-.83-.36-1.48l1.32.56c-.37-1-.67-1.88-1-2.76l1-.29c-.16-1-1.07-1.57-1.06-2.69l1.3.36a8.27,8.27,0,0,0-.8-2,1.34,1.34,0,0,1-.16-.78c.06-.22.37-.35.5-.47,0-.64-.56-1.12-.1-1.76l.95.31c0-.66-.62-1-.53-1.75l1.06.25c-.38-.71-.68-1.27-1-1.85-.18-.37-.35-.76,0-1.17l.86.22c-.07-.62-.13-1.2-.19-1.83l.92-.13a3.56,3.56,0,0,1,.64-3.05A2.44,2.44,0,0,0,46.69,22a38.26,38.26,0,0,0-4.38-3.66c-.1-.07-.26,0-.38-.07l-1.07,1a20.73,20.73,0,0,0,3,1.71C44.9,21.55,45.87,22.18,47,22.89Zm8,5.43a7.32,7.32,0,0,0-2.5-2.3c.1-.34.17-.6.24-.84A8.46,8.46,0,0,0,50,23.4c-.22-.06-.44-.17-.63.15.19.29.4.59.59.91.37.63.78,1.26,1.1,1.93a65.07,65.07,0,0,1,4.38,12.18,39.48,39.48,0,0,1,1.36,6.55A25.7,25.7,0,0,0,57.38,48l.94.27c.22-.88-.5-1.69,0-2.55l.89.62c0-1.07-.61-1.85-.78-2.79l.73-.47c-.24-.5-.5-1-.71-1.5s-.45-1.21-.67-1.82c-.16-.43.37-.44.5-.84-.27-.63-.59-1.35-.88-2.08-.09-.2-.2-.49-.12-.64s.39-.28.66-.46c-.24-.42-.45-.83-.7-1.22-.4-.62-.85-1.22-1.24-1.85a2.2,2.2,0,0,1-.16-.67h1.05c-.42-.5-.75-.88-1.07-1.28l-1-1.18A.75.75,0,0,1,55,28.32Zm10.56,3.35-1.74-.78c-.21-.1-.56-.16-.6-.3-.18-.63-.71-.63-1.17-.81a1.45,1.45,0,0,1-.77-.54c-.13-.23,0-.6,0-.87-.47-.2-.9-.36-1.32-.56a.69.69,0,0,1-.43-.66l.06-.66c-.47-.19-.85-.36-1.24-.5a1.54,1.54,0,0,1-1-.84c-.1-.23-.5-.39-.79-.47-.49-.14-1-.19-1.5-.29a1.57,1.57,0,0,1-.39-.22v-.91a4.43,4.43,0,0,0-3.34,0,9,9,0,0,0,2.1,1.6,12.8,12.8,0,0,1,1.2.68A44.46,44.46,0,0,1,60.92,31a30.22,30.22,0,0,1,5.39,7.08c.7,1.31,1.36,2.64,2.09,4,.2,0,.51.08.82.16s.48.44.94.26a14.63,14.63,0,0,0-.91-2c-.28-.46.1-.76.09-1.16A20.45,20.45,0,0,1,67,37.26c.08-.61.79-.16.79-.79-.24-.16-.54-.3-.79-.5-.53-.44-1.06-.9-1.55-1.39-.13-.13-.13-.38-.18-.54.46-.41,1.12.06,1.5-.57-.29-.14-.52-.27-.76-.37s-.46-.09-.68-.17a.52.52,0,0,1-.17-.81A5.74,5.74,0,0,1,65.59,31.67Zm3.7-2.85.59-.53c.68.28,1,.92,1.87.93a4.25,4.25,0,0,0-.37-.45,53.69,53.69,0,0,0-7.76-5.17c-1-.53-2-.9-3-1.35a11.64,11.64,0,0,0-4.6-1c-1.39,0-2.79,0-4.18.12A6.68,6.68,0,0,0,49,22.1a1.76,1.76,0,0,0,1.4.28h3.49a2.38,2.38,0,0,1,1.66.54v1c1,.33,2.17.23,3.06.85,0,.27,0,.48-.05.73L60.2,26l.92-.71c.3.2.63.59.82.53.72-.23,1.07.39,1.58.63.09-.35.17-.64.25-.93,1,.08,1.15,1.11,1.75,1.5.66-.07.68-.08.8.09.33.45.64.92,1,1.37.12.17.27.32.46.54V27.7C68.54,27.8,68.73,28.52,69.29,28.82Zm-21-5a2.18,2.18,0,0,0,0,1.46,5.29,5.29,0,0,1,.33,2.19c0,.38,0,.75,0,1.12,0,.05.1.1.15.16.26-.13.38-.62.86-.25,0,.4.06.86.07,1.33,0,.79,0,1.58,0,2.37,0,.06.08.12.11.18.31-.18.29-.74.87-.65.44,1.06-.55,2.19,0,3.28.55-.21.42-1,1.17-1a3.65,3.65,0,0,1,.1.65c0,.69,0,1.39,0,2.09,0,.06.11.11.16.16l.92-.52c-.12,1.06-.22,1.92-.34,3a6.71,6.71,0,0,1,.55-.44,6.41,6.41,0,0,1,.57-.3v2.88l.77.06c0,.38,0,.7,0,1,0,.65-.1,1.3-.15,2,0,.07.08.14.11.2l.71-.23v2.07c1.13.77.89,2.06,1.3,3.34,0-.46.07-.71.08-1a23.88,23.88,0,0,0-.48-3.58,56.72,56.72,0,0,0-1.72-7.88c-.31-1.16-.76-2.29-1.13-3.43a42.87,42.87,0,0,0-3.46-8.35A4.64,4.64,0,0,0,48.26,23.79Zm-22,5.07c-.18.74-.72,1.15-.65,1.87.73-.73,1.38-1.39,2-2,1.62-1.6,1.63-1.6,2.28-1.67-.39.87-1.34,1.36-1.47,2.48.34-.38.57-.66.83-.92.7-.69,1.4-1.37,2.11-2a.5.5,0,0,1,.78,0l-.48,1c.69-.54,1.15-.93,1.63-1.28s.71-.68,1.2-.17c0,.05.27,0,.37-.09.48-.36.75,0,1.08.31a5,5,0,0,1,.71-.41,1.17,1.17,0,0,1,.52,0c-.15.77-1.05,1.05-1,1.92.27-.2.5-.34.71-.52s.68-.63,1-.94a2.87,2.87,0,0,1,.61-.55,2.15,2.15,0,0,1,.75-.11c.06.48-.46.68-.33,1.2a7.46,7.46,0,0,1,.73-.5,2.58,2.58,0,0,1,.9-.3,2,2,0,0,1,.74.29c.41-.33.8-.65,1.22-.95s.91-.6,1.51-1c-1.24-.21-2.29-.46-3.35-.54a18.16,18.16,0,0,0-3.61,0,27.49,27.49,0,0,0-8.61,2.69c-1.43.67-2.86,1.35-4.31,2a8.89,8.89,0,0,0-2.63,1.59,1.32,1.32,0,0,1-.29,1.27c-.17.18-.44.39-.18.69.81-.3,1-1.35,1.88-1.58.17.23.33.42.53.68l1.2-1.26C25.11,29.48,25.35,28.85,26.22,28.86ZM41.9,17a28.74,28.74,0,0,0-4.38-4,16.29,16.29,0,0,0-1.67-1.23,26.68,26.68,0,0,0-6.58-2.2,2.36,2.36,0,0,0-.84,0c-1.52.08-3.05.13-4.58.28a5.8,5.8,0,0,0-2.06.56c1,.07,1.92,0,2.87,0,.18,0,.43,0,.53.12.43.47,1,.32,1.54.48,0,.25.05.46.07.7a10,10,0,0,0,2.86-.16c-.13.4-.22.68-.34,1,1,.14,2.05-.2,3,.12-.11.35-.19.59-.27.87l3.28.5.17.67c.47-.06.83-.13,1.2-.14s.83-.18,1.17.12c.21.67-.7.64-.74,1.16.94.26,1.87.27,2.89.59l-.71.83,1.86.47ZM17.6,22.7c.56-.51,1-.95,1.52-1.37.2-.17.42-.22.55.11-.08.32-.17.65-.3,1.12a27,27,0,0,1,4.07-2.12,4.19,4.19,0,0,0,.36.32c.11.07.24.11.33.16A10.61,10.61,0,0,1,26.75,20l.59.68c.39-.2.76-.39,1.14-.56s.84-.43,1.35-.17c0,.21.05.42.08.63,0,0,.08,0,.11.06,2.06-.46,2.06-.46,3.16.34l-.65.59c.62-.09,1.06-.18,1.51-.21.81-.05,1.66-.36,2.4.28a.38.38,0,0,0,.26.07A6.78,6.78,0,0,0,38.91,21c-1.1-.33-2.11-.66-3.14-.93A43.78,43.78,0,0,0,28.21,19a25.06,25.06,0,0,0-6.24.48,20.35,20.35,0,0,0-6.36,2.38,2.76,2.76,0,0,0-1.34,1.88c1.06-.33,1.75-1.19,2.7-1.45Zm50.12,20a10.18,10.18,0,0,0-.36-1.3c-.39-.84-.79-1.68-1.24-2.49a25.8,25.8,0,0,0-1.77-3,45.08,45.08,0,0,0-7.18-7.56c-.67-.57-1.41-1.05-2.12-1.57-.15-.11-.31-.2-.46.08.3.38.64.76.95,1.17s.65.9,1,1.36a.94.94,0,0,1,.14,1,.59.59,0,0,0,.1.49c.14.17.36.39.54.38a4,4,0,0,0,1-.33l1.14,1.6c.18-.12.34-.28.49-.29a.66.66,0,0,1,.45.26,3,3,0,0,1,.32.76c.14.44.25.89.39,1.41l.77-.92c.75.78.38,1.77.73,2.55,1.12.18,1.12.18,1.34,1.31,0,.22.09.44.14.66.51,0,.83.23.88.75s.13,1,.23,1.52c.05.3.16.59.23.87.31-.09.56-.24.73-.18a.89.89,0,0,1,.41.51,11.43,11.43,0,0,1,.28,1.12ZM64.06,17.08c.65-.8.65-.79,1.46-.72.21,0,.53.07.64,0,.42-.46.93-.33,1.43-.33s.52,0,.59-.86a21.07,21.07,0,0,0-5.55.25,45.64,45.64,0,0,0-7.06,2.15,40.29,40.29,0,0,0-4.09,2.08,3.45,3.45,0,0,0-1.29,1.05,2.72,2.72,0,0,0,1.91-.49,3.84,3.84,0,0,1,3-.67.62.62,0,0,0,.4,0,3.82,3.82,0,0,0,1.73-.86,2.15,2.15,0,0,1,.81-.51c.51-.19,1.09-.17,1.4-.77.08-.17.5-.21.76-.21a7.32,7.32,0,0,1,1.06.11c0-.25,0-.47.1-.59a.72.72,0,0,1,.49-.2,3.34,3.34,0,0,1,.82.18C63.14,16.74,63.57,16.91,64.06,17.08ZM52.49,15.77a5.77,5.77,0,0,0,2.13-1.52,4.16,4.16,0,0,0,1.78-3.14l1.89-.62c.07,0,.12-.13.18-.2l-.35-.63c.31-.11.52-.2.73-.25.89-.17,1.86-.1,2.45-1,.12-.2.49-.23.75-.34l.57-.29A4,4,0,0,0,60,8a24.8,24.8,0,0,0-7.38,5.64,48.2,48.2,0,0,0-3.82,5.14c-.06.08,0,.22-.06.57L50,17.92c.47-.51.94-1,1.44-1.51a.53.53,0,0,1,.85,0c.37.37.53,0,.7-.31Zm-28.41,2c-.87.62-1.63-.33-2.4-.07-.11.24-.23.48-.31.67-.56.29-1.16-.14-1.63.19,0,.51.26.62.66.54.91-.19,1.81-.38,2.73-.51a22.43,22.43,0,0,1,4.56-.41,42.29,42.29,0,0,1,9.48,1.56,3.54,3.54,0,0,0,.85,0c-1.23-1-2.14-1.89-3.59-1.82a1.33,1.33,0,0,1-.64-.24c-.43-.27-.84-.57-1.24-.85a1.82,1.82,0,0,1-1.71-.05l-.27.73c-.95.12-1.41-.72-2.13-1-.72.5-.72.5-2.06.34,0,.32.41.71-.17,1L25,17.45,23.69,17c-.05,0-.12.06-.19.09ZM51.81,11a3.28,3.28,0,0,0-.9,1.4c-.15.36-.35.7-.75.75a.85.85,0,0,0-.75.7c-.21.62-.39,1.24-.6,1.86-.12.34-.25.7-.73.77L47.62,16a15.21,15.21,0,0,0-.83,3.61c0,.16.15.31.31.61.13-.2.21-.31.28-.43a35.15,35.15,0,0,1,3.68-5.39,18.29,18.29,0,0,1,1.6-1.92A28.88,28.88,0,0,1,57.28,8.7c.35-.23.68-.48,1-.73.05,0,.06-.15.09-.25l-.83-.26c-.83.47-1.1,1.49-1.94,1.69-.37-.06-.52-.44-.95-.2-.39.62-.83,1.33-1.28,2a1,1,0,0,1-1.1.62Zm.82,6.78c.48.23.84,0,1.22-.19.86-.35,1.71-.74,2.58-1.05s1.79-.5,2.64-.86a20.25,20.25,0,0,1,4-1.08,17.76,17.76,0,0,1,6.66.07,2.19,2.19,0,0,0,1.17.07l-1.15-.93c-.91-.19-2,.14-2.78-.57-.08-.07-.27,0-.41,0a4,4,0,0,0-2.06.17A1.36,1.36,0,0,1,63,13.2a6.75,6.75,0,0,1-2,1.08c-.71.11-1.39.41-2.08.48L58.47,14c-.38.3-.73.59-1.1.86a1.37,1.37,0,0,1-.58.35A2.42,2.42,0,0,1,56,15a2.27,2.27,0,0,1-2.31,1.3A4.54,4.54,0,0,0,52.63,17.78Zm14.82,6.71L69,24.2c-.17-.19-.27-.35-.41-.42-.75-.38-1.51-.72-2.26-1.09a2,2,0,0,1-.8-.47,1.76,1.76,0,0,0-1.31-.68,2.47,2.47,0,0,1-1.26-.4c0-.25-.05-.46-.07-.67H60.36L60,20a7,7,0,0,0-1.82.7c1.49.58,2.88,1,4.2,1.66s2.6,1.43,3.9,2.15,2.37,1.7,3.69,2.34C69.43,25.86,68.42,25.41,67.45,24.49Zm-23-7.83.19-.05A2.37,2.37,0,0,0,44.6,16c-.21-.57-.45-1.12-.68-1.68a33.13,33.13,0,0,0-3.43-6.67A14.71,14.71,0,0,0,36,3.33,24.73,24.73,0,0,0,28.58.69a2.51,2.51,0,0,0-.64,0,2.4,2.4,0,0,0,1.56.77,15.41,15.41,0,0,1,4.92,1.83,14.31,14.31,0,0,1,4.27,3.51c.44.58,1.09,1,1.54,1.6A16.44,16.44,0,0,1,43,13c.17.48.35,1,.55,1.43C43.82,15.14,44.16,15.9,44.48,16.66Zm-8.21-1.52c-1.37.28-2.64-.21-3.55.86a1.5,1.5,0,0,0,1,.81c.6.22,1.21.43,1.79.7.76.35,1.48.76,2.22,1.14l.64-.42c.77.21,1.45,1,2.29.08a3.46,3.46,0,0,0-2.22-.39c-.36,0-.76.1-.93-.45l.62-.8c-.13-.05-.17-.08-.22-.09a4.44,4.44,0,0,0-1.92.05c-.28.09-.57.15-.72-.18s.12-.51.32-.7Zm12.76,5a15.36,15.36,0,0,0,3-1.74l-.88-.87A9.4,9.4,0,0,0,49,20.17Zm-10,.1a12.1,12.1,0,0,0,3.46.89A10.08,10.08,0,0,0,40.67,20,1.49,1.49,0,0,0,39,20.27Zm18.77-.7a3.24,3.24,0,0,0-2.56.83l2,.33Zm-39.37,14c.48-.55.81-1,1.18-1.35.69-.69.69-.69.88-1.33a5.81,5.81,0,0,0-2.15,1.92C18.26,32.92,18.39,33.18,18.44,33.56Zm10-31.44c-.51-.45-.86-.58-1.16-.31a3.91,3.91,0,0,0-.62.87c0,.07.07.23.13.41.48-.24.94-.44,1.38-.67C28.23,2.36,28.3,2.22,28.39,2.12ZM26.94,58c-.57-.16-1-.28-1.34-.38a3.2,3.2,0,0,0-.54-.09c-.37,0-.72.22-.68.5s.37.39.63.35C25.59,58.32,26.16,58.18,26.94,58ZM19.08,19.49a1,1,0,0,0-1.14-.34c-.4.1-.48.2-1.09,1.27ZM25.67,1.83c-.59-.46-.59-.46-1.52-.13v1ZM58.41,18.36c.15.58.14.95.32,1.15s.61.07.89-.09a2.85,2.85,0,0,0,.5-.45Zm-15.31-3-.91,0s0,.08,0,.12c.73.86.73.86,1.43,1.16ZM47.94,27.7c.1-.95.1-.95-.43-1.57A1.83,1.83,0,0,0,47.94,27.7Zm-3.35-8.56c-.07-.79-.07-.79-1.07-.83A1.68,1.68,0,0,0,44.59,19.14Zm1.79,1.47c-.28-.68-.45-1.11-.66-1.61C45.35,19.72,45.58,20.13,46.38,20.61Zm-32,1.18a1.2,1.2,0,0,0-1.27.83Zm38.82-1.54c.58.33.58.33,1,0Z"/><path d="M2,82.89a2.29,2.29,0,0,1,1-1.21A30.5,30.5,0,0,1,7.53,79l2.35-1.21a2.71,2.71,0,0,0,1.22-1.1A3.2,3.2,0,0,1,13.55,75c.69-.09,1.38-.19,2.07-.25.13,0,.28.15.51.29a4.91,4.91,0,0,1-2,.45A3,3,0,0,0,11.34,78a5.07,5.07,0,0,0-.76.14,3.91,3.91,0,0,0-.63.28c-1.28.67-2.56,1.32-3.82,2a11.51,11.51,0,0,0-1.5,1c-.28.21-.66.38-.61.86,0,.06-.22.22-.28.19C3.09,82.16,2.76,82.92,2,82.89Z"/><path d="M7.16,72.28,8.59,72l-2.37-.49a12.26,12.26,0,0,1,5.29.43l-.65.85c-1,0-2.07-.07-3.08-.12C7.54,72.68,7.19,72.77,7.16,72.28Z"/><path d="M37.68,74.21h7.18c.13.3,0,.47-.24.55a1,1,0,0,1-.41.07c-1.84-.33-3.7,0-5.55-.16-.35,0-.7-.11-1-.16Z"/><path d="M44.86,73.54a9.08,9.08,0,0,1-1.36.1c-2-.21-4,.07-6-.16.11-.42.38-.3.58-.31a37,37,0,0,1,6.74.08Z"/><path d="M59.93,75c-.07.46-.31.49-.54.49-1,0-2,0-2.93,0-1.25-.06-2.5-.15-3.75-.23-.12,0-.24-.06-.64-.15C54.85,74.84,57.35,75,59.93,75Z"/><path d="M57.55,76.53c-3.58.14-5.28,0-6.62-.44a38.57,38.57,0,0,1,6.2.06C57.24,76.16,57.32,76.32,57.55,76.53Z"/><path d="M28.71,73.05a26.81,26.81,0,0,1,5.39.28,2.11,2.11,0,0,1,.62.26c-.13.14-.19.25-.24.25-1.84-.16-3.69-.34-5.54-.52C28.88,73.31,28.83,73.2,28.71,73.05Z"/><path d="M7,73.75c.13-.43.5-.41.8-.43a12.6,12.6,0,0,1,4.2.24c0,.35-.13.39-.33.38L7.4,73.83A2,2,0,0,1,7,73.75Z"/><path d="M36.56,75.26a4.22,4.22,0,0,1,.67-.21q2,.08,4,.18a.15.15,0,0,1,.11.07,1.12,1.12,0,0,1,.09.17,1.74,1.74,0,0,1-.47.24A15.62,15.62,0,0,1,36.56,75.26Z"/><path d="M55.21,74.18a13.92,13.92,0,0,1,2.33,0,24,24,0,0,0,4.15.22,9,9,0,0,1,1.37.07,18.77,18.77,0,0,1-5.5,0,18.45,18.45,0,0,0-2.35-.18Z"/><path d="M27.48,71.93a5.85,5.85,0,0,1,.86-.08c1.58.15,3.13-.37,4.71-.14,0,0,.05.07.1.14s-.17.22-.27.24A15.82,15.82,0,0,1,27.48,71.93Z"/><path d="M48.07,77.17a9.25,9.25,0,0,1,4.45.43A10.82,10.82,0,0,1,48.07,77.17Z"/><path d="M7.53,74.89a2.78,2.78,0,0,1,2.14-.42,2.5,2.5,0,0,1,1.65.68Z"/><path d="M68.46,78.09a2.15,2.15,0,0,1-.64.13,14.66,14.66,0,0,1-3.77-.63c1.48-.08,2.94.21,4.41.21Z"/><path d="M48.49,72.89a9.88,9.88,0,0,1,4.31-.31A14,14,0,0,1,48.49,72.89Z"/><path d="M6.64,76.11a3.55,3.55,0,0,1,3.25.15A11.9,11.9,0,0,1,6.64,76.11Z"/><path d="M70.33,74.41c-1-.16-2,.36-3.13,0a5.67,5.67,0,0,1,2.64-.53C70.05,74,70.31,74,70.33,74.41Z"/><path d="M34.53,74.85c-1.1.57-2.15,0-3.33.09.1-.22.14-.41.19-.41A20.76,20.76,0,0,1,34.53,74.85Z"/><path d="M1.58,78.61A4.34,4.34,0,0,1,4,78.37,3,3,0,0,1,1.58,78.61Z"/><path d="M61.05,80.77H58.14c.38-.23.5-.37.63-.38A3.8,3.8,0,0,1,61.05,80.77Z"/><path d="M42.26,77.33A3.34,3.34,0,0,1,39.87,77C41.39,76.88,41.39,76.88,42.26,77.33Z"/><path d="M3.21,79.85c-.36.36-.48.57-.65.62A4,4,0,0,1,0,80.29c.31,0,.61-.07.92-.08s.74,0,1.1,0A8.32,8.32,0,0,0,3.21,79.85Z"/><path d="M66.28,79.71a3.12,3.12,0,0,1-2.15.14A2.32,2.32,0,0,1,66.28,79.71Z"/><path d="M53.32,80.57H55C53.83,81,53.83,81,53.32,80.57Z"/><path d="M5.56,77.17A1.32,1.32,0,0,1,4,77.09,1.59,1.59,0,0,1,5.56,77.17Z"/><path d="M9,84.46l.36.58c-.07,0-.18.14-.22.12a1.53,1.53,0,0,1-.41-.31S8.84,84.66,9,84.46Z"/><path d="M63.07,85.52l-1,.09C62.44,84.93,62.57,84.92,63.07,85.52Z"/><path d="M58.69,87.21a3.54,3.54,0,0,1-.74,0c-.09,0-.13-.19-.19-.3.13,0,.27-.13.37-.1S58.37,87,58.69,87.21Z"/><path d="M20.32,77.42c.43.38,1,.26,1.47.32.71.09.71.09,1.36.67-.63.12-1.11-.31-1.76-.24l-.19.48c.49.35,1.18,0,1.6.73a44.48,44.48,0,0,1-5.19-.09c-.11,0-.21-.13-.48-.31l3.18-.51a.71.71,0,0,0,0-.14H17.77c.08-.49.38-.54.68-.59l1.92-.3Z"/><path d="M21.79,64.64a3.24,3.24,0,0,1,3.89,1.46,1.52,1.52,0,0,1-.5,0c-.67-.16-1.33-.36-2.15-.59l1.14-.3Z"/><path d="M25.74,69c-1.1-.14-2.2-.27-3.29-.44a18.3,18.3,0,0,1-1.89-.42c-.1,0-.18-.16-.33-.3a1.36,1.36,0,0,1,1.35,0,12.2,12.2,0,0,0,3,.62c.46.08.93.14,1.17.62Z"/><path d="M17.81,74.42a2.69,2.69,0,0,1,.71-.31c.78,0,1.56,0,2.35,0,.18,0,.43,0,.53.1a3.65,3.65,0,0,0,1.56.78,2.29,2.29,0,0,1-.6.18,1.41,1.41,0,0,1-.52-.15,5.9,5.9,0,0,0-3.52-.36C18.22,74.63,18.09,74.53,17.81,74.42Z"/><path d="M21.92,76.05l-4.45-.35a2.88,2.88,0,0,1,2.38-.42,19.5,19.5,0,0,1,2.12.57A1.46,1.46,0,0,1,21.92,76.05Z"/><path d="M23.08,61.44a5.77,5.77,0,0,1,3.17.61.35.35,0,0,1,.11.34.35.35,0,0,1-.33.12A18.51,18.51,0,0,0,23.08,61.44Z"/><path d="M33.22,43.93c.58-.25,1-.41,1.36-.19.64.38,1.49.41,2,1.18-.72.24-1.11-.26-1.6-.42S34,44.16,33.22,43.93Z"/><path d="M22.86,80.59s-.07.09-.09.09l-3.08-.52c.18-.52.54-.43.84-.4A3.16,3.16,0,0,1,22.86,80.59Z"/><path d="M27,54.9a4.64,4.64,0,0,1,2.48.31,3.55,3.55,0,0,1,.74.5A6.35,6.35,0,0,1,27,54.9Z"/><path d="M25.69,64c-.51-.16-1-.34-1.51-.49s-1-.25-1.5-.38A2.41,2.41,0,0,1,25.69,64Z"/><path d="M29.44,57.22l-3.13-1a5,5,0,0,1,2.42.28C29.07,56.56,29.07,56.56,29.44,57.22Z"/><path d="M25,70.6l-2.94-.79a3.52,3.52,0,0,1,2.66.2C24.91,70.1,25.14,70.19,25,70.6Z"/><path d="M25.49,67.69a10.59,10.59,0,0,1-3.16-.45A4,4,0,0,1,25.49,67.69Z"/><path d="M24.05,60a6.81,6.81,0,0,1,3.41.25c.08.41-.15.45-.3.42C26.21,60.44,25.27,60.22,24.05,60Z"/><path d="M22.75,66.46a16.62,16.62,0,0,1-2.23-.32A1.52,1.52,0,0,1,22.75,66.46Z"/><path d="M24.56,71.79l-2.23-.62C23.17,71.07,24.05,70.8,24.56,71.79Z"/><path d="M30.59,52.39c-.65.26-1.22,0-2.08-.29C29.44,51.92,30.05,51.89,30.59,52.39Z"/><path d="M20.82,69.63H19.65c.14-.18.19-.32.27-.35C20.22,69.17,20.55,69.05,20.82,69.63Z"/></g></g></svg>