<svg xmlns="http://www.w3.org/2000/svg" viewBox="0 0 306.9 270.8"><g id="Layer_2" data-name="Layer 2"><g id="Object"><path d="M283.59,120.08a92.89,92.89,0,0,0-26.22-20.19c-4.46-2.3-9.16-4.5-14-6.74A26.57,26.57,0,0,0,239.7,92c-1.59-.45-5.22-1.46-5.91-2.31a13.74,13.74,0,0,1,1.81-3.38,14.2,14.2,0,0,0,1.65-3,4.91,4.91,0,0,0,.09-3.41c-.83-2.21-3.23-2.8-4-3l-.31-.07,9.47-23.52a5.18,5.18,0,0,0,.44-3.22A5.32,5.32,0,0,0,241.74,48L230.42,34.54a10.06,10.06,0,0,0-3.91-3.24,10.23,10.23,0,0,0-4.46-.43l-13.56.85a9.38,9.38,0,0,0-4.37,1.05,9.51,9.51,0,0,0-2.66,2.63L189.88,50.79a6.46,6.46,0,0,0-1.62,3.8,6.39,6.39,0,0,0,1,3.17l11.15,20.73c-2.72.83-4.19,1.87-4.81,3.36-.84,2,.26,3.83,1.23,5.44.73,1.22,1.5,2.48,1.34,3.61-.2,1.46-5.12,2.65-7.48,3.22a27.84,27.84,0,0,0-4.12,1.19,128.36,128.36,0,0,0-16,8.45c-1.31-1.45-2.66-2.85-4-4.18-5.41-5.2-11.35-10.57-18.16-14.65-9.17-5.49-27-11.35-49.47-11.35h0A92.21,92.21,0,0,0,47.15,89.05c-14.67,9.71-27,23.79-35.77,40.74A102.44,102.44,0,0,0,.15,170.63,89.34,89.34,0,0,0,7.58,212.3a113.66,113.66,0,0,0,25,35.24c11.72,11.15,24.69,18.37,37.51,20.87a132.67,132.67,0,0,0,25,2.34c1.29,0,2.58,0,3.86-.05h0a122,122,0,0,0,23.89-3A92.79,92.79,0,0,0,159.26,250c16.17,14.1,34.92,20.78,57.7,20.78,28.88,0,57.4-14.43,72.65-36.75A96.39,96.39,0,0,0,306.9,180.4,87.38,87.38,0,0,0,283.59,120.08ZM228.94,76.16l.17.07a36.84,36.84,0,0,0-4.33,0c2.91-7.39,3.24-15.49,3.35-22.91.67,0,1.33,0,2,0a42,42,0,0,0,8.36-.85ZM222.3,34.88a6.88,6.88,0,0,1,2.73.17,7,7,0,0,1,2.31,2.07L237,48.66a37.39,37.39,0,0,1-9.45.56,3.43,3.43,0,0,1-1.41-.3l0-.05,0-.07h0a6.25,6.25,0,0,1-.41-.9l-5-12.93Zm-12,.76,6.2-.39,5.45,14.11c.07.18.14.37.23.57a81.17,81.17,0,0,1-14.1,2.4C208.42,48.34,209.17,41.27,210.27,35.64Zm13.84,17.94c-.12,7.62-.54,15.91-3.87,23l-2.45.3a55.77,55.77,0,0,1-5.72.31,128,128,0,0,1-3.75-20.83A86.3,86.3,0,0,0,224.11,53.58ZM204.68,37.82a7,7,0,0,1,1.38-1.51C205,42.23,204.29,49.14,204,52.72a34.93,34.93,0,0,1-10.51,0ZM193.26,56.75a38.21,38.21,0,0,0,5.45.39,38.9,38.9,0,0,0,5.61-.41,132.68,132.68,0,0,0,3.62,20.56c-1.15,0-2.31.15-3.47.31ZM121.87,263.8a118.55,118.55,0,0,1-23.1,2.88,129.43,129.43,0,0,1-27.94-2.22C44,259.24,21.15,232.92,11.26,210.67a85.3,85.3,0,0,1-7.09-39.82A98.19,98.19,0,0,1,15,131.64c8.41-16.34,20.31-29.91,34.41-39.23A88.23,88.23,0,0,1,98.9,77.6c14.21,0,34.12,2.83,47.4,10.78,6.47,3.88,12.2,9.07,17.44,14.1,17.75,17,29.67,45,29.67,69.62a94.55,94.55,0,0,1-12,45.66,98.69,98.69,0,0,1-13.47,18.73c.81.67,1.61,1.36,2.4,2a5.89,5.89,0,0,1,.68.53,101.85,101.85,0,0,0,13.91-19.37,98.5,98.5,0,0,0,12.5-47.6c0-18.7-6.62-39.27-17.38-55.93A72.77,72.77,0,0,1,214.36,106c.88,0,1.75,0,2.63,0a74.64,74.64,0,0,1,74.47,72c.49,14.23-5,31.38-15.85,49.61a23.87,23.87,0,0,1-5.48,5.62L269,234c-13.14,11.1-30.93,18.14-48.82,19.3-18.8,1.23-36.49-4-49.8-14.6a72,72,0,0,1-8.85-8.4,89.8,89.8,0,0,0,13.35-17.45c7.28-12.48,10.88-27.6,10.4-43.73-.66-22.49-10.82-44.55-27.86-60.52s-39-24.52-61.63-23.73A79.51,79.51,0,0,0,55,97.67,89.57,89.57,0,0,0,26.5,127.72c-16,27.36-17.44,60.95-3.67,87.65A58.15,58.15,0,0,0,39.47,235.2c1.85,1.38,3.67,2.81,5.43,4.19,7.07,5.52,13.75,10.74,22.47,14A81.07,81.07,0,0,0,96,258.57a91.09,91.09,0,0,0,50.9-16c1-.65,1.92-1.33,2.87-2q3.18,3.58,6.49,6.73A88.8,88.8,0,0,1,121.87,263.8Zm59.2-94.56c.45,15.12-3,29.85-9.82,41.47A85.58,85.58,0,0,1,158.83,227l.3.39a75.07,75.07,0,0,1-12.19-71.33c0-2.59,2.58-6.54,3.73-8.82a78.46,78.46,0,0,1,16-21.37A81.51,81.51,0,0,1,181.07,169.24ZM144,233.55c1,1.29,2,2.54,3,3.77-.82.59-1.64,1.18-2.48,1.75-23.1,15.64-51.38,19.52-75.64,10.37-8.11-3.06-14.54-8.08-21.35-13.4-1.78-1.39-3.62-2.83-5.5-4.24a53.84,53.84,0,0,1-15.41-18.38C13.5,188,14.86,156,30.17,129.87c14.61-25,38.6-39.81,65.81-40.76.92,0,1.84,0,2.75,0,20.46,0,40.2,8,55.83,22.63.64.6,1.26,1.21,1.88,1.83-2.81,2-5.48,5.45-7.6,7.81-13.45,15-20,34.28-22.09,54C124.58,195.54,130.7,216.2,144,233.55Zm142.31-1.77c-14.53,21.26-41.74,35-69.33,35-29,0-51.14-11.34-69.78-35.68-12.66-16.52-18.49-36.16-16.43-55.29,1.67-15.46,5.53-28.23,11.78-39.05A75.48,75.48,0,0,1,151,124.92c1.62-1.86,3.45-3.51,5.11-5.32a19.84,19.84,0,0,1,3.11-3.16c1.82,2,3.53,4,5.14,6.18-9.46,9.07-17.05,19.59-21.37,32.1-10.9,31.59-.92,66.65,24.82,87.24,12.77,10.22,29.29,15.7,47,15.7,1.88,0,3.77-.06,5.68-.19a88.71,88.71,0,0,0,51.24-20.28l1.06-.88a27.05,27.05,0,0,0,6.4-6.7c11.43-19.19,17-36.65,16.43-51.89a78.82,78.82,0,0,0-81.42-75.94,76.94,76.94,0,0,0-36.34,10.84,15.25,15.25,0,0,1,1.75,2.89,98.31,98.31,0,0,0-6.38-8.67A121.4,121.4,0,0,1,188.13,99a27.32,27.32,0,0,1,3.48-1c4.44-1.07,10-2.41,10.53-6.59.34-2.53-.9-4.58-1.89-6.23a8.62,8.62,0,0,1-.94-1.83c.15-.16.86-.75,3.6-1.4a40.75,40.75,0,0,1,8.76-.78,64.37,64.37,0,0,0,6.61-.35c4.7-.58,9.55-1.18,14.07-.06a2.69,2.69,0,0,1,1.23.51,1.82,1.82,0,0,1-.14.72,14.82,14.82,0,0,1-1.21,2c-1.52,2.34-3.25,5-2.08,7.3s4.9,3.45,8.46,4.45a25.54,25.54,0,0,1,3.07,1c4.8,2.23,9.46,4.41,13.85,6.68a88.69,88.69,0,0,1,25.08,19.32,83.42,83.42,0,0,1,22.27,57.57A92.39,92.39,0,0,1,286.29,231.78Z" fill="#1a2828"/><path d="M190.1,27.7a2.41,2.41,0,0,1-2.32-1.78,46.33,46.33,0,0,0-7.91-16.05A2.4,2.4,0,0,1,183.68,7a51.22,51.22,0,0,1,8.74,17.73,2.41,2.41,0,0,1-1.7,2.94A2.7,2.7,0,0,1,190.1,27.7Z" fill="#1a2828"/><path d="M215.67,16.39a2.39,2.39,0,0,1-2.4-2.4V2.4a2.4,2.4,0,1,1,4.79,0V14A2.39,2.39,0,0,1,215.67,16.39Z" fill="#1a2828"/><path d="M241.67,24.38a2.37,2.37,0,0,1-1.34-.41,2.4,2.4,0,0,1-.64-3.33L250.84,4.19a2.4,2.4,0,0,1,4,2.69L243.66,23.33A2.4,2.4,0,0,1,241.67,24.38Z" fill="#1a2828"/></g></g></svg>